<svg xmlns="http://www.w3.org/2000/svg" width="4931.4" height="1024" viewBox="0 0 4931 1024"><path d="M1274 5c-12 0-21 3-28 9-6 5-11 12-13 21l-3 19c0 7 3 12 8 17s14 8 28 8c13 0 22-3 28-8 7-5 11-13 13-22l3-19c0-7-2-13-7-18s-15-7-29-7zm-824 6c-18 0-32 5-41 14-8 10-14 23-17 40l-31 186H157l-5 32h204L237 993l-9 3L24 806 0 829l168 156 36 33c9 7 18 11 28 11 14 0 25-5 31-15s11-23 14-40l115-691h368l-87 519h37l60-360c4-27 13-50 27-69 15-20 30-36 46-48 35-26 76-39 123-39h119v-3h122l-90 461a920 920 0 0 0-6 38c0 10 3 18 9 24s14 9 26 9c10 0 20-3 31-10l47-33 201-145c7 54 23 97 50 128 35 40 87 60 154 60 51 0 96-13 133-39 38-27 72-68 102-123l-29-16c-25 47-54 83-87 109-32 25-72 37-117 37-32 0-59-5-81-15s-40-25-54-43c-13-17-23-38-29-62-5-24-8-49-8-77v-10l1-17c94-2 169-10 224-22 56-13 98-28 128-46a137 137 0 0 0 70-117c0-43-16-76-48-100-31-24-74-36-128-36-42 0-81 9-116 27-34 18-64 42-88 72-25 31-45 67-59 108-14 42-21 86-21 132l1 14-266 189-9-5 101-524H974c-25 0-47 2-65 7-19 5-36 12-51 22-14 8-27 19-38 33-12 13-22 27-32 44h-3l17-106H398l35-208h236l6-32H450zm2324 0-56 338h-4c-11-33-31-60-60-80-29-21-67-31-114-31-41 0-78 10-111 30-32 19-59 46-82 79-22 34-38 72-50 117-11 44-17 90-17 140 0 31 4 60 12 86s19 48 34 66c16 19 35 34 58 44s49 15 79 15c48 0 88-12 119-37 31-26 57-59 78-101h3l-20 125h36l131-791h-36zm-627 227c-47 0-85 12-115 36-30 25-55 58-76 101h-4l20-124h-36l-92 551h36l55-327a262 262 0 0 1 49-113l17-24a174 174 0 0 1 137-67c80 0 119 42 119 125 0 9 0 19-2 30 0 11-1 21-3 31l-58 345h37l59-348a488 488 0 0 0 5-63c0-49-13-86-39-112-25-27-62-41-109-41zm848 0c-29 0-57 3-84 10-25 5-48 15-68 28a142 142 0 0 0-63 124c0 23 4 43 12 58 7 16 18 29 32 39s30 18 49 23c18 5 38 9 60 11l83 8c38 4 67 13 89 28 21 14 32 38 32 72 0 48-18 84-54 108-34 24-81 36-141 36-49 0-90-7-125-22-34-16-62-41-85-75l-29 21c48 72 127 108 237 108 33 0 64-4 92-12 29-7 53-18 74-33s37-33 49-55c12-23 18-49 18-79 0-23-4-42-13-58-7-16-18-29-33-39-13-10-29-17-48-22-18-5-38-9-59-11l-82-8c-38-4-68-13-90-27-21-14-32-38-32-73 0-42 16-74 47-96 32-21 74-32 129-32 26 0 49 2 69 6 20 5 37 10 52 18 15 7 28 15 38 25s18 19 25 29l28-23a242 242 0 0 0-77-61 326 326 0 0 0-133-26zm466 0c-47 0-85 12-115 36-30 25-55 58-76 101h-4l20-124h-36l-92 551h36l55-327a262 262 0 0 1 49-113l17-24a174 174 0 0 1 137-67c80 0 119 42 119 125 0 9 0 19-2 30 0 11-1 21-3 31l-58 345h37l59-348a488 488 0 0 0 5-63c0-49-13-86-39-112-25-27-62-41-109-41zm409 0a247 247 0 0 0-199 97c-24 32-42 70-56 116-13 45-19 95-19 152 0 30 4 59 13 85 8 26 21 48 38 67s38 34 63 44c25 11 54 16 87 16 41 0 78-8 111-24 34-17 63-42 87-73s42-70 55-114c14-45 21-96 21-153 0-31-5-59-13-85a179 179 0 0 0-102-112c-25-11-54-16-86-16zm464 0c-47 0-85 12-115 36-30 25-56 58-76 101h-5l21-124h-37l-92 551h37l54-327a262 262 0 0 1 50-113l17-24a174 174 0 0 1 137-67c79 0 119 42 119 125l-2 30-3 31-58 345h36l59-348a488 488 0 0 0 6-63c0-49-13-86-39-112-26-27-62-41-109-41zm421 0c-42 0-80 9-115 27s-64 42-89 72c-25 31-45 67-59 108-13 42-20 86-20 132 0 78 17 138 52 178 36 40 87 60 154 60 51 0 96-13 134-39 37-27 71-68 101-123l-29-16c-25 47-53 83-86 109-33 25-72 37-118 37-32 0-59-5-81-15s-40-25-53-43c-14-17-24-38-29-62-6-24-9-49-9-77v-10l1-17c94-2 169-10 225-22 55-13 98-28 127-46a137 137 0 0 0 70-117c0-43-16-76-48-100-31-24-74-36-128-36zm-3053 32c52 0 88 10 110 30s33 45 33 75c0 18-5 35-15 53s-28 34-56 49c-27 15-65 27-115 37-50 9-115 14-196 16l4-28c6-37 16-70 30-98 15-29 32-53 53-73a220 220 0 0 1 152-61zm3050 0c51 0 88 10 109 30 22 20 33 45 33 75 0 18-5 35-15 53-9 18-28 34-56 49-27 15-65 27-115 37-50 9-115 14-196 16l5-28c5-37 15-70 30-98a220 220 0 0 1 205-134zm-2207 1c31 0 57 5 79 14s40 20 53 35 21 31 25 49c5 19 6 38 4 56l-26 152c-6 33-17 64-33 91-17 26-34 48-54 66-18 17-38 30-58 37a193 193 0 0 1-135-3c-19-9-35-22-47-37-12-17-22-35-28-57a269 269 0 0 1-4-122l9-59c5-31 14-60 26-87s27-51 45-71 40-35 64-47c24-11 51-17 80-17zm1322 0c29 0 54 5 74 14 22 9 39 21 53 36 13 15 23 34 29 55 8 21 11 45 11 70a342 342 0 0 1-4 57l-10 56c-12 70-36 124-73 164-38 39-87 59-148 59-28 0-53-4-75-13-20-9-38-21-51-36-14-16-24-34-31-56a245 245 0 0 1-9-99l4-28 9-55c12-70 37-125 74-164 37-40 86-60 147-60z" transform="translate(0 -5)"/></svg>