<svg xmlns="http://www.w3.org/2000/svg" width="998.2" height="1024" viewBox="0 0 998 1024"><path d="M466 0c-19 0-33 5-41 14-9 9-14 23-17 40l-32 187H171l-5 32h205L252 987l-10 4L37 799l-24 24 169 157 36 33c9 7 18 11 28 11 15 0 25-5 31-15 7-10 12-23 14-40l117-696h236l-87 523h37l55-329a264 264 0 0 1 49-114l17-24a175 175 0 0 1 138-68c80 0 120 42 120 126 0 10 0 20-2 30 0 11-1 22-3 32l-58 347h37l59-351a491 491 0 0 0 5-63c0-49-13-87-39-113-25-27-62-41-109-41-48 0-86 12-116 37-31 24-56 58-77 101h-4l20-125H413l36-209h237l6-32H466z" transform="translate(-13)"/></svg>